# xmcd
#
# Track frame offsets:
# 150
# 4512
# 23442
# 38047
# 60985
# 76292
# 86165
# 102667
# 113427
# 128117
# 145445
# 162332
# 187062
#
# Disc length: 2592 seconds
#
#
# Revision: 2
# Processed by: cddbd v1.5.1PL0 Copyright (c) Steve Scherf et al.
# Submitted via: FreeRIP 2.90 
#
DISCID=9e0a1e0d
DTITLE=Chico Lobo - No Braco dessa Viola
DYEAR=1995
DGENRE=Folk
TTITLE0=Rede na Varanda
TTITLE1=Beira de Mato
TTITLE2="Zohio" Preto Matador
TTITLE3=Caipira
TTITLE4=Vazante
TTITLE5=Catira
TTITLE6=No Braco dessa Viola
TTITLE7=Morena
TTITLE8=Agua e Chao
TTITLE9=Couro de Boi
TTITLE10=Criacao
TTITLE11=Viola de Terreiro
TTITLE12=Matuto
EXTD=
EXTT0=
EXTT1=
EXTT2=
EXTT3=
EXTT4=
EXTT5=
EXTT6=
EXTT7=
EXTT8=
EXTT9=
EXTT10=
EXTT11=
EXTT12=
PLAYORDER=
